<svg width="126" height="32" viewBox="0 0 126 32" fill="none" xmlns="http://www.w3.org/2000/svg">
  <path d="M109.593 26.382C115.122 26.382 119.606 21.7528 119.606 16.045V16H125.091C125.091 24.809 118.169 32 109.593 32C101.06 32 94.0949 24.8539 94.0949 16C94.0949 7.191 101.017 0 109.593 0V5.70787C104.064 5.70787 99.5802 10.3371 99.5802 16.045C99.5802 21.7528 104.064 26.382 109.593 26.382Z" fill="#222222"/>
  <path fill-rule="evenodd" clip-rule="evenodd" d="M17.2868 15.2844C19.2727 13.8967 20.4011 11.8585 20.4011 9.2998C20.4011 4.44269 17.1062 1.10345 11.7351 1.10345H0V30.8966H12.367C17.3319 30.8966 21.033 27.2537 21.033 22.2232C21.033 19.3609 19.6338 16.8023 17.2868 15.2844ZM5.68704 6.78452C5.68704 6.30748 6.00297 6.00391 6.49947 6.00391H10.697C12.8184 6.00391 14.353 7.6085 14.353 9.64675C14.353 11.685 12.8635 13.2896 10.697 13.2896H6.49947C6.00297 13.2896 5.68704 12.9426 5.68704 12.509V6.78452ZM10.7873 25.9527H6.5446C6.04811 25.9527 5.68704 25.6058 5.68704 25.1287V19.0574C5.68704 18.537 6.04811 18.19 6.5446 18.19H10.7873C13.2697 18.19 14.8495 19.838 14.8495 22.0497C14.8495 24.2614 13.3149 25.9527 10.7873 25.9527Z" fill="#222222"/>
  <path d="M28.7438 1.10345V24.6517C28.7438 25.2589 29.2237 25.7359 29.8345 25.6925H40.959V30.8966H23.247V1.10345H28.7438Z" fill="#222222"/>
  <path fill-rule="evenodd" clip-rule="evenodd" d="M52.2593 1.10345L42.066 30.8966H47.8971L49.0544 27.5573C49.2324 27.0802 49.4995 26.7767 50.1227 26.7767H59.4702C60.0934 26.7767 60.405 27.0802 60.5385 27.5573L61.6959 30.8966H67.527H73.3719V13.2719C73.3719 12.2326 74.1605 12.0593 74.6708 12.9687L84.7835 30.8532H91.8809V1.10345H86.036V18.7715C86.036 19.8107 85.2474 19.984 84.7371 19.0746L74.9491 1.19006H67.527V30.8966L57.3337 1.10345H52.2593ZM57.6007 21.616H51.9922C51.4135 21.616 51.0574 21.2691 51.28 20.7053L54.2623 12.0319C54.5294 11.2513 55.1971 11.2513 55.4641 12.0319L58.4019 20.7053C58.5355 21.3125 58.2239 21.616 57.6007 21.616Z" fill="#222222"/>
</svg>
